<?xml version="1.0" encoding="utf-8"?><svg viewBox="0 0 747 426" width="100%" height="100%" version="1.1" xmlns:xlink="http://www.w3.org/1999/xlink" xmlns="http://www.w3.org/2000/svg"><defs><clipPath id="clip_0"><path d="M 0 0 l 747,0 l 0,426 l -747,0 z M504.5 278.9038 C504.5 278.0788 505.175 277.4038 506 277.4038 C506.825 277.4038 507.5 278.0788 507.5 278.9038 C507.5 279.7288 506.825 280.4037 506 280.4037 C505.175 280.4037 504.5 279.7288 504.5 278.9038 Z " clip-rule="nonzero" /></clipPath><clipPath id="clip_1"><path d="M 0 0 l 747,0 l 0,426 l -747,0 z M553.98 396 C553.98 395.175 554.655 394.5 555.48 394.5 C556.305 394.5 556.98 395.175 556.98 396 C556.98 396.825 556.305 397.5 555.48 397.5 C554.655 397.5 553.98 396.825 553.98 396 Z " clip-rule="nonzero" /></clipPath><clipPath id="clip_2"><path d="M 0 0 l 747,0 l 0,426 l -747,0 z M504.5 419.3188 C504.5 418.4938 505.175 417.8188 506 417.8188 C506.825 417.8188 507.5 418.4938 507.5 419.3188 C507.5 420.1438 506.825 420.8188 506 420.8188 C505.175 420.8188 504.5 420.1438 504.5 419.3188 Z " clip-rule="nonzero" /></clipPath><clipPath id="clip_3"><path d="M 0 0 l 747,0 l 0,426 l -747,0 z M504.5 482.3188 C504.5 481.4938 505.175 480.8188 506 480.8188 C506.825 480.8188 507.5 481.4938 507.5 482.3188 C507.5 483.1438 506.825 483.8188 506 483.8188 C505.175 483.8188 504.5 483.1438 504.5 482.3188 Z " clip-rule="nonzero" /></clipPath><clipPath id="clip_4"><path d="M 0 0 l 747,0 l 0,426 l -747,0 z M412.5 387 C412.5 386.175 413.175 385.5 414 385.5 C414.825 385.5 415.5 386.175 415.5 387 C415.5 387.825 414.825 388.5 414 388.5 C413.175 388.5 412.5 387.825 412.5 387 Z " clip-rule="nonzero" /></clipPath><clipPath id="clip_5"><path d="M 0 0 l 747,0 l 0,426 l -747,0 z M412.5 441 C412.5 440.175 413.175 439.5 414 439.5 C414.825 439.5 415.5 440.175 415.5 441 C415.5 441.825 414.825 442.5 414 442.5 C413.175 442.5 412.5 441.825 412.5 441 Z " clip-rule="nonzero" /></clipPath><clipPath id="clip_6"><path d="M 0 0 l 747,0 l 0,426 l -747,0 z M412.5 333 C412.5 332.175 413.175 331.5 414 331.5 C414.825 331.5 415.5 332.175 415.5 333 C415.5 333.825 414.825 334.5 414 334.5 C413.175 334.5 412.5 333.825 412.5 333 Z " clip-rule="nonzero" /></clipPath><clipPath id="clip_7"><path d="M 0 0 l 747,0 l 0,426 l -747,0 z M331.0553 505.2172 C331.0553 504.3922 331.7303 503.7172 332.5553 503.7172 C333.3803 503.7172 334.0553 504.3922 334.0553 505.2172 C334.0553 506.0422 333.3803 506.7172 332.5553 506.7172 C331.7303 506.7172 331.0553 506.0422 331.0553 505.2172 Z " clip-rule="nonzero" /></clipPath></defs><filter id="shadow1" width="150%" height="150%"><feGaussianBlur in="SourceAlpha" result="blur" stdDeviation="5" /><feOffset dx="2" dy="2" in="blur" result="offsetBlur" /><feMerge><feMergeNode in="offsetBlur" /><feMergeNode in="SourceGraphic" /></feMerge></filter><rect x="0" y="0" width="747" height="426" fill="#FFFFFF" fill-opacity="1" /><rect x="270" y="261" width="126" height="234" rx="18" ry="18" fill="#FFFFFF" fill-opacity="1" transform="matrix(1.000261 0 0 1.000261 -97.50023 -153.04)" /><rect x="270" y="261" width="126" height="234" rx="18" ry="18" fill="none" stroke="#000000" stroke-opacity="1" stroke-width="1" stroke-linecap="butt" stroke-linejoin="miter" stroke-dasharray="none" transform="matrix(1.000261 0 0 1.000261 -97.50023 -153.04)" /><rect x="297" y="288" width="81" height="45" fill="#B3FFA9" fill-opacity="1" filter="url(#shadow1)" transform="matrix(1.000261 0 0 1.000261 -97.50023 -153.04)" /><rect x="297" y="288" width="81" height="45" fill="none" stroke="#000000" stroke-opacity="1" stroke-width="1" stroke-linecap="butt" stroke-linejoin="miter" stroke-dasharray="none" transform="matrix(1.000261 0 0 1.000261 -97.50023 -153.04)" /><rect x="540" y="468" width="81" height="45" fill="#FED7D0" fill-opacity="1" filter="url(#shadow1)" transform="matrix(1.000261 0 0 1.000261 -97.50023 -153.04)" /><rect x="540" y="468" width="81" height="45" fill="none" stroke="#000000" stroke-opacity="1" stroke-width="1" stroke-linecap="butt" stroke-linejoin="miter" stroke-dasharray="none" transform="matrix(1.000261 0 0 1.000261 -97.50023 -153.04)" /><rect x="540" y="405" width="81" height="45" fill="#BFFFEF" fill-opacity="1" filter="url(#shadow1)" transform="matrix(1.000261 0 0 1.000261 -97.50023 -153.04)" /><rect x="540" y="405" width="81" height="45" fill="none" stroke="#000000" stroke-opacity="1" stroke-width="1" stroke-linecap="butt" stroke-linejoin="miter" stroke-dasharray="none" transform="matrix(1.000261 0 0 1.000261 -97.50023 -153.04)" /><rect x="288" y="279" width="81" height="45" fill="#B3FFA9" fill-opacity="1" filter="url(#shadow1)" transform="matrix(1.000261 0 0 1.000261 -97.50023 -153.04)" /><rect x="288" y="279" width="81" height="45" fill="none" stroke="#000000" stroke-opacity="1" stroke-width="1" stroke-linecap="butt" stroke-linejoin="miter" stroke-dasharray="none" transform="matrix(1.000261 0 0 1.000261 -97.50023 -153.04)" /><text x="319.2217" y="298.9336" font-size="12" fill="#000000" fill-opacity="1" font-family="Arial" font-weight="normal" font-style="normal" transform="matrix(1.000261 0 0 1.000261 -97.50023 -153.04)">fire
</text><text x="303.1963" y="313.9336" font-size="12" fill="#000000" fill-opacity="1" font-family="Arial" font-weight="normal" font-style="normal" transform="matrix(1.000261 0 0 1.000261 -97.50023 -153.04)">agencies</text><rect x="531" y="396" width="81" height="45" fill="#BFFFEF" fill-opacity="1" filter="url(#shadow1)" transform="matrix(1.000261 0 0 1.000261 -97.50023 -153.04)" /><rect x="531" y="396" width="81" height="45" fill="none" stroke="#000000" stroke-opacity="1" stroke-width="1" stroke-linecap="butt" stroke-linejoin="miter" stroke-dasharray="none" transform="matrix(1.000261 0 0 1.000261 -97.50023 -153.04)" /><text x="551.9209" y="423.4336" font-size="12" fill="#000000" fill-opacity="1" font-family="Arial" font-weight="normal" font-style="normal" transform="matrix(1.000261 0 0 1.000261 -97.50023 -153.04)">vendor</text><rect x="531" y="459" width="81" height="45" fill="#FED7D0" fill-opacity="1" filter="url(#shadow1)" transform="matrix(1.000261 0 0 1.000261 -97.50023 -153.04)" /><rect x="531" y="459" width="81" height="45" fill="none" stroke="#000000" stroke-opacity="1" stroke-width="1" stroke-linecap="butt" stroke-linejoin="miter" stroke-dasharray="none" transform="matrix(1.000261 0 0 1.000261 -97.50023 -153.04)" /><text x="546.9111" y="478.9336" font-size="12" fill="#000000" fill-opacity="1" font-family="Arial" font-weight="normal" font-style="normal" transform="matrix(1.000261 0 0 1.000261 -97.50023 -153.04)">research
</text><text x="562.1016" y="493.9336" font-size="12" fill="#000000" fill-opacity="1" font-family="Arial" font-weight="normal" font-style="normal" transform="matrix(1.000261 0 0 1.000261 -97.50023 -153.04)">org</text><rect x="603" y="171" width="81" height="45" fill="#FFFFCD" fill-opacity="1" filter="url(#shadow1)" transform="matrix(1.000261 0 0 1.000261 -97.50023 -153.04)" /><rect x="603" y="171" width="81" height="45" fill="none" stroke="#000000" stroke-opacity="1" stroke-width="1" stroke-linecap="butt" stroke-linejoin="miter" stroke-dasharray="none" transform="matrix(1.000261 0 0 1.000261 -97.50023 -153.04)" /><text x="628.4531" y="190.9336" font-size="12" fill="#000000" fill-opacity="1" font-family="Arial" font-weight="normal" font-style="normal" transform="matrix(1.000261 0 0 1.000261 -97.50023 -153.04)">ODIN
</text><text x="613.7988" y="205.9336" font-size="12" fill="#000000" fill-opacity="1" font-family="Arial" font-weight="normal" font-style="normal" transform="matrix(1.000261 0 0 1.000261 -97.50023 -153.04)">maintainer</text><path d="M459 275.875 L459 311.1249 C459 314.3563 469.5751 317 482.5 317 C495.4249 317 506 314.3563 506 311.1249 L506 275.875 Z " fill="#FFFFFF" fill-opacity="1" transform="matrix(1.000261 0 0 1.000261 -97.50023 -153.04)" /><path d="M459 275.875 L459 311.1249 C459 314.3563 469.5751 317 482.5 317 C495.4249 317 506 314.3563 506 311.1249 L506 275.875 Z " fill="none" stroke="#000000" stroke-opacity="1" stroke-width="1" stroke-linecap="butt" stroke-linejoin="miter" stroke-dasharray="none" transform="matrix(1.000261 0 0 1.000261 -97.50023 -153.04)" /><ellipse cx="482.5" cy="275.875" rx="23.5" ry="5.875009" fill="#FFFFFF" fill-opacity="1" transform="matrix(1.000261 0 0 1.000261 -97.50023 -153.04)" /><ellipse cx="482.5" cy="275.875" rx="23.5" ry="5.875009" fill="none" stroke="#000000" stroke-opacity="1" stroke-width="1" stroke-linecap="butt" stroke-linejoin="miter" stroke-dasharray="none" transform="matrix(1.000261 0 0 1.000261 -97.50023 -153.04)" /><path d="M477 408.625 L477 430.3749 C477 432.3688 483.525 434 491.5 434 C499.4749 434 506 432.3688 506 430.3749 L506 408.625 Z " fill="#E5E5E5" fill-opacity="1" transform="matrix(1.000261 0 0 1.000261 -97.50023 -153.04)" /><path d="M477 408.625 L477 430.3749 C477 432.3688 483.525 434 491.5 434 C499.4749 434 506 432.3688 506 430.3749 L506 408.625 Z " fill="none" stroke="#000000" stroke-opacity="1" stroke-width="1" stroke-linecap="butt" stroke-linejoin="miter" stroke-dasharray="none" transform="matrix(1.000261 0 0 1.000261 -97.50023 -153.04)" /><ellipse cx="491.5" cy="408.625" rx="14.5" ry="3.625009" fill="#E5E5E5" fill-opacity="1" transform="matrix(1.000261 0 0 1.000261 -97.50023 -153.04)" /><ellipse cx="491.5" cy="408.625" rx="14.5" ry="3.625009" fill="none" stroke="#000000" stroke-opacity="1" stroke-width="1" stroke-linecap="butt" stroke-linejoin="miter" stroke-dasharray="none" transform="matrix(1.000261 0 0 1.000261 -97.50023 -153.04)" /><path d="M477 471.625 L477 493.3749 C477 495.3688 483.525 497 491.5 497 C499.4749 497 506 495.3688 506 493.3749 L506 471.625 Z " fill="#FFFFFF" fill-opacity="1" transform="matrix(1.000261 0 0 1.000261 -97.50023 -153.04)" /><path d="M477 471.625 L477 493.3749 C477 495.3688 483.525 497 491.5 497 C499.4749 497 506 495.3688 506 493.3749 L506 471.625 Z " fill="none" stroke="#000000" stroke-opacity="1" stroke-width="1" stroke-linecap="butt" stroke-linejoin="miter" stroke-dasharray="none" transform="matrix(1.000261 0 0 1.000261 -97.50023 -153.04)" /><ellipse cx="491.5" cy="471.625" rx="14.5" ry="3.625009" fill="#FFFFFF" fill-opacity="1" transform="matrix(1.000261 0 0 1.000261 -97.50023 -153.04)" /><ellipse cx="491.5" cy="471.625" rx="14.5" ry="3.625009" fill="none" stroke="#000000" stroke-opacity="1" stroke-width="1" stroke-linecap="butt" stroke-linejoin="miter" stroke-dasharray="none" transform="matrix(1.000261 0 0 1.000261 -97.50023 -153.04)" /><g clip-path="url(#clip_0)"><line x1="607.275" y1="216" x2="506" y2="278.9038" stroke="#000000" stroke-opacity="1" stroke-width="1" stroke-linecap="butt" stroke-linejoin="miter" stroke-dasharray="none" transform="matrix(1.000261 0 0 1.000261 -97.50023 -153.04)" /></g><path d="M513.037 276.9549 L507.1636 278.1811 L510.8659 273.4595 Z " fill="#000000" fill-opacity="1" transform="matrix(1.000261 0 0 1.000261 -97.50023 -153.04)" /><path d="M513.037 276.9549 L507.1636 278.1811 L510.8659 273.4595 Z " fill="none" stroke="#000000" stroke-opacity="1" stroke-width="1" stroke-linecap="butt" stroke-linejoin="miter" stroke-dasharray="none" transform="matrix(1.000261 0 0 1.000261 -97.50023 -153.04)" /><g clip-path="url(#clip_1)"><line x1="498.1858" y1="315.4903" x2="555.48" y2="396" stroke="#000000" stroke-opacity="1" stroke-width="1" stroke-linecap="butt" stroke-linejoin="miter" stroke-dasharray="none" transform="matrix(1.000261 0 0 1.000261 -97.50023 -153.04)" /></g><path d="M553.0941 389.099 L554.6858 394.884 L549.7416 391.4847 Z " fill="#000000" fill-opacity="1" transform="matrix(1.000261 0 0 1.000261 -97.50023 -153.04)" /><path d="M553.0941 389.099 L554.6858 394.884 L549.7416 391.4847 Z " fill="none" stroke="#000000" stroke-opacity="1" stroke-width="1" stroke-linecap="butt" stroke-linejoin="miter" stroke-dasharray="none" transform="matrix(1.000261 0 0 1.000261 -97.50023 -153.04)" /><g clip-path="url(#clip_2)"><line x1="531" y1="419.0063" x2="506" y2="419.3188" stroke="#000000" stroke-opacity="1" stroke-width="1" stroke-linecap="butt" stroke-linejoin="miter" stroke-dasharray="none" transform="matrix(1.000261 0 0 1.000261 -97.50023 -153.04)" /></g><path d="M513.0312 421.2884 L507.3697 419.3017 L512.9797 417.174 Z " fill="#000000" fill-opacity="1" transform="matrix(1.000261 0 0 1.000261 -97.50023 -153.04)" /><path d="M513.0312 421.2884 L507.3697 419.3017 L512.9797 417.174 Z " fill="none" stroke="#000000" stroke-opacity="1" stroke-width="1" stroke-linecap="butt" stroke-linejoin="miter" stroke-dasharray="none" transform="matrix(1.000261 0 0 1.000261 -97.50023 -153.04)" /><g clip-path="url(#clip_3)"><line x1="531" y1="482.0063" x2="506" y2="482.3188" stroke="#000000" stroke-opacity="1" stroke-width="1" stroke-linecap="butt" stroke-linejoin="miter" stroke-dasharray="none" transform="matrix(1.000261 0 0 1.000261 -97.50023 -153.04)" /></g><path d="M513.0312 484.2884 L507.3697 482.3017 L512.9797 480.174 Z " fill="#000000" fill-opacity="1" transform="matrix(1.000261 0 0 1.000261 -97.50023 -153.04)" /><path d="M513.0312 484.2884 L507.3697 482.3017 L512.9797 480.174 Z " fill="none" stroke="#000000" stroke-opacity="1" stroke-width="1" stroke-linecap="butt" stroke-linejoin="miter" stroke-dasharray="none" transform="matrix(1.000261 0 0 1.000261 -97.50023 -153.04)" /><g clip-path="url(#clip_4)"><line x1="477" y1="413.4194" x2="414" y2="387" stroke="#000000" stroke-opacity="1" stroke-width="1" stroke-linecap="butt" stroke-linejoin="miter" stroke-dasharray="none" transform="matrix(1.000261 0 0 1.000261 -97.50023 -153.04)" /></g><path d="M419.6652 391.6067 L415.2632 387.5297 L421.2565 387.8121 Z " fill="#000000" fill-opacity="1" transform="matrix(1.000261 0 0 1.000261 -97.50023 -153.04)" /><path d="M419.6652 391.6067 L415.2632 387.5297 L421.2565 387.8121 Z " fill="none" stroke="#000000" stroke-opacity="1" stroke-width="1" stroke-linecap="butt" stroke-linejoin="miter" stroke-dasharray="none" transform="matrix(1.000261 0 0 1.000261 -97.50023 -153.04)" /><g clip-path="url(#clip_5)"><line x1="477" y1="474.7355" x2="414" y2="441" stroke="#000000" stroke-opacity="1" stroke-width="1" stroke-linecap="butt" stroke-linejoin="miter" stroke-dasharray="none" transform="matrix(1.000261 0 0 1.000261 -97.50023 -153.04)" /></g><path d="M419.205 446.121 L415.2075 441.6466 L421.1475 442.4936 Z " fill="#000000" fill-opacity="1" transform="matrix(1.000261 0 0 1.000261 -97.50023 -153.04)" /><path d="M419.205 446.121 L415.2075 441.6466 L421.1475 442.4936 Z " fill="none" stroke="#000000" stroke-opacity="1" stroke-width="1" stroke-linecap="butt" stroke-linejoin="miter" stroke-dasharray="none" transform="matrix(1.000261 0 0 1.000261 -97.50023 -153.04)" /><g clip-path="url(#clip_6)"><line x1="459" y1="307.0511" x2="414" y2="333" stroke="#000000" stroke-opacity="1" stroke-width="1" stroke-linecap="butt" stroke-linejoin="miter" stroke-dasharray="none" transform="matrix(1.000261 0 0 1.000261 -97.50023 -153.04)" /></g><path d="M421.097 331.2825 L415.1866 332.3158 L419.0414 327.718 Z " fill="#000000" fill-opacity="1" transform="matrix(1.000261 0 0 1.000261 -97.50023 -153.04)" /><path d="M421.097 331.2825 L415.1866 332.3158 L419.0414 327.718 Z " fill="none" stroke="#000000" stroke-opacity="1" stroke-width="1" stroke-linecap="butt" stroke-linejoin="miter" stroke-dasharray="none" transform="matrix(1.000261 0 0 1.000261 -97.50023 -153.04)" /><text x="530.9932" y="346" font-size="12" fill="#000000" fill-opacity="1" font-family="Helvetica" font-weight="normal" font-style="oblique" transform="matrix(1.000261 0 0 1.000261 -97.50023 -153.04)">“ODIN as a library”</text><text x="445.3118" y="538.7997" font-size="12" fill="#000000" fill-opacity="1" font-family="Arial" font-weight="normal" font-style="normal" transform="matrix(1.000261 0 0 1.000261 -97.50023 -153.04)">- open/closed source repositories
</text><text x="445.3118" y="553.7997" font-size="12" fill="#000000" fill-opacity="1" font-family="Arial" font-weight="normal" font-style="normal" transform="matrix(1.000261 0 0 1.000261 -97.50023 -153.04)">  for specific components
</text><text x="445.3118" y="568.7997" font-size="12" fill="#000000" fill-opacity="1" font-family="Arial" font-weight="normal" font-style="normal" transform="matrix(1.000261 0 0 1.000261 -97.50023 -153.04)">- binary artifacts
</text><text x="462" y="240.4336" font-size="12" fill="#000000" fill-opacity="1" font-family="Arial" font-weight="normal" font-style="normal" transform="matrix(1.000261 0 0 1.000261 -97.50023 -153.04)">- open source repository (github)
</text><text x="462" y="255.4336" font-size="12" fill="#000000" fill-opacity="1" font-family="Arial" font-weight="normal" font-style="normal" transform="matrix(1.000261 0 0 1.000261 -97.50023 -153.04)">- binary artifacts (Maven Central)</text><path d="M325.291 522.7194 L325.291 544.4694 C325.291 546.4632 331.816 548.0945 339.791 548.0945 C347.766 548.0945 354.291 546.4632 354.291 544.4694 L354.291 522.7194 Z " fill="#FFFFFF" fill-opacity="1" transform="matrix(1.000261 0 0 1.000261 -97.50023 -153.04)" /><path d="M325.291 522.7194 L325.291 544.4694 C325.291 546.4632 331.816 548.0945 339.791 548.0945 C347.766 548.0945 354.291 546.4632 354.291 544.4694 L354.291 522.7194 Z " fill="none" stroke="#000000" stroke-opacity="1" stroke-width="1" stroke-linecap="butt" stroke-linejoin="miter" stroke-dasharray="none" transform="matrix(1.000261 0 0 1.000261 -97.50023 -153.04)" /><ellipse cx="339.791" cy="522.7194" rx="14.5" ry="3.625009" fill="#FFFFFF" fill-opacity="1" transform="matrix(1.000261 0 0 1.000261 -97.50023 -153.04)" /><ellipse cx="339.791" cy="522.7194" rx="14.5" ry="3.625009" fill="none" stroke="#000000" stroke-opacity="1" stroke-width="1" stroke-linecap="butt" stroke-linejoin="miter" stroke-dasharray="none" transform="matrix(1.000261 0 0 1.000261 -97.50023 -153.04)" /><text x="244.2442" y="521.3757" font-size="12" fill="#000000" fill-opacity="1" font-family="Arial" font-weight="normal" font-style="normal" transform="matrix(1.000261 0 0 1.000261 -97.50023 -153.04)">applications
</text><text x="253.0186" y="536.3757" font-size="12" fill="#000000" fill-opacity="1" font-family="Arial" font-weight="normal" font-style="normal" transform="matrix(1.000261 0 0 1.000261 -97.50023 -153.04)">(configs)</text><path d="M316.291 513.7194 L316.291 535.4694 C316.291 537.4632 322.816 539.0945 330.791 539.0945 C338.766 539.0945 345.291 537.4632 345.291 535.4694 L345.291 513.7194 Z " fill="#CCCCCC" fill-opacity="1" transform="matrix(1.000261 0 0 1.000261 -97.50023 -153.04)" /><path d="M316.291 513.7194 L316.291 535.4694 C316.291 537.4632 322.816 539.0945 330.791 539.0945 C338.766 539.0945 345.291 537.4632 345.291 535.4694 L345.291 513.7194 Z " fill="none" stroke="#000000" stroke-opacity="1" stroke-width="1" stroke-linecap="butt" stroke-linejoin="miter" stroke-dasharray="none" transform="matrix(1.000261 0 0 1.000261 -97.50023 -153.04)" /><ellipse cx="330.791" cy="513.7194" rx="14.5" ry="3.625009" fill="#CCCCCC" fill-opacity="1" transform="matrix(1.000261 0 0 1.000261 -97.50023 -153.04)" /><ellipse cx="330.791" cy="513.7194" rx="14.5" ry="3.625009" fill="none" stroke="#000000" stroke-opacity="1" stroke-width="1" stroke-linecap="butt" stroke-linejoin="miter" stroke-dasharray="none" transform="matrix(1.000261 0 0 1.000261 -97.50023 -153.04)" /><text x="516" y="294.4336" font-size="12" fill="#000000" fill-opacity="1" font-family="Arial" font-weight="normal" font-style="normal" transform="matrix(1.000261 0 0 1.000261 -97.50023 -153.04)">- framework
</text><text x="516" y="309.4336" font-size="12" fill="#000000" fill-opacity="1" font-family="Arial" font-weight="normal" font-style="normal" transform="matrix(1.000261 0 0 1.000261 -97.50023 -153.04)">- generic components</text><rect x="297" y="360" width="81" height="45" fill="#B3FFA9" fill-opacity="1" filter="url(#shadow1)" transform="matrix(1.000261 0 0 1.000261 -97.50023 -153.04)" /><rect x="297" y="360" width="81" height="45" fill="none" stroke="#000000" stroke-opacity="1" stroke-width="1" stroke-linecap="butt" stroke-linejoin="miter" stroke-dasharray="none" transform="matrix(1.000261 0 0 1.000261 -97.50023 -153.04)" /><rect x="288" y="351" width="81" height="45" fill="#B3FFA9" fill-opacity="1" filter="url(#shadow1)" transform="matrix(1.000261 0 0 1.000261 -97.50023 -153.04)" /><rect x="288" y="351" width="81" height="45" fill="none" stroke="#000000" stroke-opacity="1" stroke-width="1" stroke-linecap="butt" stroke-linejoin="miter" stroke-dasharray="none" transform="matrix(1.000261 0 0 1.000261 -97.50023 -153.04)" /><text x="315.252" y="370.9336" font-size="12" fill="#000000" fill-opacity="1" font-family="Arial" font-weight="normal" font-style="normal" transform="matrix(1.000261 0 0 1.000261 -97.50023 -153.04)">local
</text><text x="292.4414" y="385.9336" font-size="12" fill="#000000" fill-opacity="1" font-family="Arial" font-weight="normal" font-style="normal" transform="matrix(1.000261 0 0 1.000261 -97.50023 -153.04)">communities</text><rect x="297" y="432" width="81" height="45" fill="#B3FFA9" fill-opacity="1" filter="url(#shadow1)" transform="matrix(1.000261 0 0 1.000261 -97.50023 -153.04)" /><rect x="297" y="432" width="81" height="45" fill="none" stroke="#000000" stroke-opacity="1" stroke-width="1" stroke-linecap="butt" stroke-linejoin="miter" stroke-dasharray="none" transform="matrix(1.000261 0 0 1.000261 -97.50023 -153.04)" /><rect x="288" y="423" width="81" height="45" fill="#B3FFA9" fill-opacity="1" filter="url(#shadow1)" transform="matrix(1.000261 0 0 1.000261 -97.50023 -153.04)" /><rect x="288" y="423" width="81" height="45" fill="none" stroke="#000000" stroke-opacity="1" stroke-width="1" stroke-linecap="butt" stroke-linejoin="miter" stroke-dasharray="none" transform="matrix(1.000261 0 0 1.000261 -97.50023 -153.04)" /><text x="312.8994" y="442.9336" font-size="12" fill="#000000" fill-opacity="1" font-family="Arial" font-weight="normal" font-style="normal" transform="matrix(1.000261 0 0 1.000261 -97.50023 -153.04)">utility
</text><text x="301.998" y="457.9336" font-size="12" fill="#000000" fill-opacity="1" font-family="Arial" font-weight="normal" font-style="normal" transform="matrix(1.000261 0 0 1.000261 -97.50023 -153.04)">providers</text><line x1="441" y1="162" x2="441" y2="495" stroke="#000000" stroke-opacity="1" stroke-width="1" stroke-linecap="butt" stroke-linejoin="miter" stroke-dasharray="8,4,2,4" transform="matrix(1.000261 0 0 1.000261 -97.50023 -153.04)" /><text x="348.1094" y="174.0625" font-size="16" fill="#000000" fill-opacity="1" font-family="Arial" font-weight="normal" font-style="normal" transform="matrix(1.000261 0 0 1.000261 -97.50023 -153.04)">User 
</text><text x="318.3047" y="192.0625" font-size="16" fill="#000000" fill-opacity="1" font-family="Arial" font-weight="normal" font-style="normal" transform="matrix(1.000261 0 0 1.000261 -97.50023 -153.04)">Stakeholders</text><text x="479.2109" y="174.0625" font-size="16" fill="#000000" fill-opacity="1" font-family="Arial" font-weight="normal" font-style="normal" transform="matrix(1.000261 0 0 1.000261 -97.50023 -153.04)">Provider 
</text><text x="462.3047" y="192.0625" font-size="16" fill="#000000" fill-opacity="1" font-family="Arial" font-weight="normal" font-style="normal" transform="matrix(1.000261 0 0 1.000261 -97.50023 -153.04)">Stakeholders</text><text x="101.9906" y="291.9982" font-size="12" fill="#0000FF" fill-opacity="1" font-family="Arial" font-weight="normal" font-style="italic" transform="matrix(1.000261 0 0 1.000261 -97.50023 -153.04)">- ICS operations 
</text><text x="101.9906" y="305.9982" font-size="12" fill="#0000FF" fill-opacity="1" font-family="Arial" font-weight="normal" font-style="italic" transform="matrix(1.000261 0 0 1.000261 -97.50023 -153.04)">  (better situational awareness:
</text><text x="101.9906" y="319.9982" font-size="12" fill="#0000FF" fill-opacity="1" font-family="Arial" font-weight="normal" font-style="italic" transform="matrix(1.000261 0 0 1.000261 -97.50023 -153.04)">   edge servers + own tracking)</text><text x="100.6024" y="354.511" font-size="12" fill="#0000FF" fill-opacity="1" font-family="Arial" font-weight="normal" font-style="italic" transform="matrix(1.000261 0 0 1.000261 -97.50023 -153.04)">- monitoring &amp; alarm
</text><text x="100.6024" y="368.511" font-size="12" fill="#0000FF" fill-opacity="1" font-family="Arial" font-weight="normal" font-style="italic" transform="matrix(1.000261 0 0 1.000261 -97.50023 -153.04)">  (local sensors, fire danger)
</text><text x="100.6024" y="382.511" font-size="12" fill="#0000FF" fill-opacity="1" font-family="Arial" font-weight="normal" font-style="italic" transform="matrix(1.000261 0 0 1.000261 -97.50023 -153.04)">- planning &amp; awareness
</text><text x="100.6024" y="396.511" font-size="12" fill="#0000FF" fill-opacity="1" font-family="Arial" font-weight="normal" font-style="italic" transform="matrix(1.000261 0 0 1.000261 -97.50023 -153.04)">  (escape routes, obstructions)
</text><text x="100.6024" y="410.511" font-size="12" fill="#0000FF" fill-opacity="1" font-family="Arial" font-weight="normal" font-style="italic" transform="matrix(1.000261 0 0 1.000261 -97.50023 -153.04)">- fire agency support</text><g clip-path="url(#clip_7)"><line x1="332.5553" y1="487.0832" x2="332.5553" y2="505.2172" stroke="#000000" stroke-opacity="1" stroke-width="1" stroke-linecap="butt" stroke-linejoin="miter" stroke-dasharray="none" transform="matrix(1.000261 0 0 1.000261 -97.50023 -153.04)" /></g><path d="M334.2013 499.3385 L332.5553 503.8475 L330.9094 499.3385 Z " fill="#000000" fill-opacity="1" transform="matrix(1.000261 0 0 1.000261 -97.50023 -153.04)" /><path d="M334.2013 499.3385 L332.5553 503.8475 L330.9094 499.3385 Z " fill="none" stroke="#000000" stroke-opacity="1" stroke-width="1" stroke-linecap="butt" stroke-linejoin="miter" stroke-dasharray="none" transform="matrix(1.000261 0 0 1.000261 -97.50023 -153.04)" /><text x="102.0158" y="448.9372" font-size="12" fill="#0000FF" fill-opacity="1" font-family="Arial" font-weight="normal" font-style="italic" transform="matrix(1.000261 0 0 1.000261 -97.50023 -153.04)">- monitoring of critical
</text><text x="102.0158" y="462.9372" font-size="12" fill="#0000FF" fill-opacity="1" font-family="Arial" font-weight="normal" font-style="italic" transform="matrix(1.000261 0 0 1.000261 -97.50023 -153.04)">  infrastructure</text><text x="639.4905" y="427.761" font-size="12" fill="#0000FF" fill-opacity="1" font-family="Arial" font-weight="normal" font-style="italic" transform="matrix(1.000261 0 0 1.000261 -97.50023 -153.04)">- focus on own components
</text><text x="639.4905" y="441.761" font-size="12" fill="#0000FF" fill-opacity="1" font-family="Arial" font-weight="normal" font-style="italic" transform="matrix(1.000261 0 0 1.000261 -97.50023 -153.04)">  (HW interfaces, fire/threat 
</text><text x="639.4905" y="455.761" font-size="12" fill="#0000FF" fill-opacity="1" font-family="Arial" font-weight="normal" font-style="italic" transform="matrix(1.000261 0 0 1.000261 -97.50023 -153.04)">   models, ..)
</text><text x="639.4905" y="469.761" font-size="12" fill="#0000FF" fill-opacity="1" font-family="Arial" font-weight="normal" font-style="italic" transform="matrix(1.000261 0 0 1.000261 -97.50023 -153.04)">- integration into user stakeholder
</text><text x="639.4905" y="483.761" font-size="12" fill="#0000FF" fill-opacity="1" font-family="Arial" font-weight="normal" font-style="italic" transform="matrix(1.000261 0 0 1.000261 -97.50023 -153.04)">  systems)</text></svg>