<?xml version="1.0" encoding="utf-8"?><svg width="100%" height="100%" version="1.1" viewBox="161 45 794 352" style="background-color:#FFFFFF" xmlns:xlink="http://www.w3.org/1999/xlink" xmlns="http://www.w3.org/2000/svg"><defs><filter id="shadow1" width="150%" height="150%"><feGaussianBlur in="SourceAlpha" result="blur" stdDeviation="5" /><feOffset dx="5" dy="5" in="blur" result="offsetBlur" /><feMerge><feMergeNode in="offsetBlur" /><feMergeNode in="SourceGraphic" /></feMerge></filter><clipPath id="clip_0"><path d="M 161,45 l 794,0 l 0,352 l -794,0 z M 557.9443,340.9337 l 72.11133,0 l 0,20.13269 l -72.11133,0 z " clip-rule="evenodd" /></clipPath></defs><marker id="marker1" markerUnits="strokeWidth" orient="auto" refX="-6.303526" refY="0" markerWidth="8.763483" markerHeight="6.937729" viewBox="-7.763484 -3.468865 8.763483 6.937729"><path d="M-6.763484 -2.468865 L0 0 L-6.763484 2.468864 Z " fill="#000000" fill-opacity="1" stroke="#000000" stroke-opacity="1" /></marker><marker id="marker2" markerUnits="strokeWidth" orient="auto" refX="-6.303526" refY="0" markerWidth="8.763483" markerHeight="6.937729" viewBox="-7.763484 -3.468865 8.763483 6.937729"><path d="M-6.763484 -2.468865 L0 0 L-6.763484 2.468864 Z " fill="#000000" fill-opacity="1" stroke="#000000" stroke-opacity="1" /></marker><marker id="marker3" markerUnits="strokeWidth" orient="auto" refX="-6.303526" refY="0" markerWidth="8.763483" markerHeight="6.937729" viewBox="-7.763484 -3.468865 8.763483 6.937729"><path d="M-6.763484 -2.468865 L0 0 L-6.763484 2.468864 Z " fill="#000000" fill-opacity="1" stroke="#000000" stroke-opacity="1" /></marker><marker id="marker4" markerUnits="strokeWidth" orient="auto" refX="6.303526" refY="0" markerWidth="8.763483" markerHeight="6.937729" viewBox="-1 -3.468865 8.763483 6.937729"><path d="M6.763484 2.468864 L0 0 L6.763484 -2.468865 Z " fill="#000000" fill-opacity="1" stroke="#000000" stroke-opacity="1" /></marker><marker id="marker5" markerUnits="strokeWidth" orient="auto" refX="-6.303526" refY="0" markerWidth="8.763483" markerHeight="6.937729" viewBox="-7.763484 -3.468865 8.763483 6.937729"><path d="M-6.763484 -2.468865 L0 0 L-6.763484 2.468864 Z " fill="#000000" fill-opacity="1" stroke="#000000" stroke-opacity="1" /></marker><marker id="marker6" markerUnits="strokeWidth" orient="auto" refX="-6.303526" refY="0" markerWidth="8.763483" markerHeight="6.937729" viewBox="-7.763484 -3.468865 8.763483 6.937729"><path d="M-6.763484 -2.468865 L0 0 L-6.763484 2.468864 Z " fill="#000000" fill-opacity="1" stroke="#000000" stroke-opacity="1" /></marker><marker id="marker7" markerUnits="strokeWidth" orient="auto" refX="6.303526" refY="0" markerWidth="8.763483" markerHeight="6.937729" viewBox="-1 -3.468865 8.763483 6.937729"><path d="M6.763484 2.468864 L0 0 L6.763484 -2.468865 Z " fill="#000000" fill-opacity="1" stroke="#000000" stroke-opacity="1" /></marker><marker id="marker8" markerUnits="strokeWidth" orient="auto" refX="-6.303526" refY="0" markerWidth="8.763483" markerHeight="6.937729" viewBox="-7.763484 -3.468865 8.763483 6.937729"><path d="M-6.763484 -2.468865 L0 0 L-6.763484 2.468864 Z " fill="#000000" fill-opacity="1" stroke="#000000" stroke-opacity="1" /></marker><marker id="marker9" markerUnits="strokeWidth" orient="auto" refX="-6.303526" refY="0" markerWidth="8.763483" markerHeight="6.937729" viewBox="-7.763484 -3.468865 8.763483 6.937729"><path d="M-6.763484 -2.468865 L0 0 L-6.763484 2.468864 Z " fill="#7F7F7F" fill-opacity="1" stroke="#7F7F7F" stroke-opacity="1" /></marker><marker id="marker10" markerUnits="strokeWidth" orient="auto" refX="-6.303526" refY="0" markerWidth="8.763483" markerHeight="6.937729" viewBox="-7.763484 -3.468865 8.763483 6.937729"><path d="M-6.763484 -2.468865 L0 0 L-6.763484 2.468864 Z " fill="#7F7F7F" fill-opacity="1" stroke="#7F7F7F" stroke-opacity="1" /></marker><marker id="marker11" markerUnits="strokeWidth" orient="auto" refX="-6.303526" refY="0" markerWidth="8.763483" markerHeight="6.937729" viewBox="-7.763484 -3.468865 8.763483 6.937729"><path d="M-6.763484 -2.468865 L0 0 L-6.763484 2.468864 Z " fill="#7F7F7F" fill-opacity="1" stroke="#7F7F7F" stroke-opacity="1" /></marker><marker id="marker12" markerUnits="strokeWidth" orient="auto" refX="-6.303526" refY="0" markerWidth="8.763483" markerHeight="6.937729" viewBox="-7.763484 -3.468865 8.763483 6.937729"><path d="M-6.763484 -2.468865 L0 0 L-6.763484 2.468864 Z " fill="#7F7F7F" fill-opacity="1" stroke="#7F7F7F" stroke-opacity="1" /></marker><marker id="marker13" markerUnits="strokeWidth" orient="auto" refX="6.303526" refY="0" markerWidth="8.763483" markerHeight="6.937729" viewBox="-1 -3.468865 8.763483 6.937729"><path d="M6.763484 2.468864 L0 0 L6.763484 -2.468865 Z " fill="#000000" fill-opacity="1" stroke="#000000" stroke-opacity="1" /></marker><marker id="marker14" markerUnits="strokeWidth" orient="auto" refX="-6.303526" refY="0" markerWidth="8.763483" markerHeight="6.937729" viewBox="-7.763484 -3.468865 8.763483 6.937729"><path d="M-6.763484 -2.468865 L0 0 L-6.763484 2.468864 Z " fill="#000000" fill-opacity="1" stroke="#000000" stroke-opacity="1" /></marker><g id="layer1"><rect x="360" y="225" width="81" height="45" opacity="1" stroke="#000000" stroke-opacity="1" stroke-width="1" stroke-linecap="butt" stroke-linejoin="miter" stroke-dasharray="none" fill="#FDF5BE" fill-opacity="1" filter="url(#shadow1)" /><text x="379.6396" y="245.5336" font-size="12" fill="#000000" fill-opacity="1" font-family="Arial" font-weight="normal" font-style="normal">Sentinel
</text><text x="366.8896" y="260.5336" font-size="12" fill="#000000" fill-opacity="1" font-family="Arial" font-weight="normal" font-style="normal">Import Actor</text><rect x="522" y="225" width="81" height="45" opacity="1" stroke="#000000" stroke-opacity="1" stroke-width="1" stroke-linecap="butt" stroke-linejoin="miter" stroke-dasharray="none" fill="#FDF5BE" fill-opacity="1" filter="url(#shadow1)" /><text x="541.6396" y="245.5336" font-size="12" fill="#000000" fill-opacity="1" font-family="Arial" font-weight="normal" font-style="normal">Sentinel
</text><text x="526.918" y="260.5336" font-size="12" fill="#000000" fill-opacity="1" font-family="Arial" font-weight="normal" font-style="normal">Update Actor</text><line x1="333" y1="143.3333" x2="333" y2="386.3333" opacity="1" stroke="#000000" stroke-opacity="1" stroke-width="1" stroke-linecap="butt" stroke-linejoin="miter" stroke-dasharray="8,4,2,4" /><text x="296.8662" y="218.7836" font-size="12" fill="#000000" fill-opacity="1" font-family="Arial" font-weight="normal" font-style="normal">JSON
</text><text x="291.4492" y="233.7836" font-size="12" fill="#000000" fill-opacity="1" font-family="Arial" font-weight="normal" font-style="normal">records
</text><line x1="441" y1="247.5" x2="514.6965" y2="247.5" marker-end="url(#marker1)" opacity="1" stroke="#000000" stroke-opacity="1" stroke-width="1" stroke-linecap="butt" stroke-linejoin="miter" stroke-dasharray="none" /><text x="464.2773" y="268.0336" font-size="12" fill="#000000" fill-opacity="1" font-family="Arial" font-weight="normal" font-style="normal">Sensor
</text><text x="463.3545" y="283.0336" font-size="12" fill="#000000" fill-opacity="1" font-family="Arial" font-weight="normal" font-style="normal">Update</text><rect x="702" y="198" width="117" height="90" opacity="1" stroke="#000000" stroke-opacity="1" stroke-width="1" stroke-linecap="butt" stroke-linejoin="miter" stroke-dasharray="none" fill="#FFFFFF" fill-opacity="1" filter="url(#shadow1)" /><text x="731.6416" y="213.7313" font-size="12" fill="#000000" fill-opacity="1" font-family="Arial" font-weight="normal" font-style="normal">HttpServer</text><line x1="603" y1="261" x2="712.6965" y2="261" marker-end="url(#marker2)" opacity="1" stroke="#000000" stroke-opacity="1" stroke-width="1" stroke-linecap="butt" stroke-linejoin="miter" stroke-dasharray="none" /><rect x="720" y="225" width="81" height="45" opacity="1" stroke="#000000" stroke-opacity="1" stroke-width="1" stroke-linecap="butt" stroke-linejoin="miter" stroke-dasharray="none" fill="#FDF5BE" fill-opacity="1" filter="url(#shadow1)" /><text x="739.6396" y="245.5336" font-size="12" fill="#000000" fill-opacity="1" font-family="Arial" font-weight="normal" font-style="normal">Sentinel
</text><text x="746.0586" y="260.5336" font-size="12" fill="#000000" fill-opacity="1" font-family="Arial" font-weight="normal" font-style="normal">Route</text><line x1="603" y1="243" x2="712.6965" y2="243" marker-end="url(#marker3)" opacity="1" stroke="#000000" stroke-opacity="1" stroke-width="1" stroke-linecap="butt" stroke-linejoin="miter" stroke-dasharray="none" /><text x="622.709" y="230.5336" font-size="12" fill="#000000" fill-opacity="1" font-family="Arial" font-weight="normal" font-style="normal">SentinelSet</text><text x="630.7773" y="281.5336" font-size="12" fill="#000000" fill-opacity="1" font-family="Arial" font-weight="normal" font-style="normal">Sensor
</text><text x="629.8545" y="296.5336" font-size="12" fill="#000000" fill-opacity="1" font-family="Arial" font-weight="normal" font-style="normal">Update</text><line x1="855" y1="144" x2="855" y2="387" opacity="1" stroke="#000000" stroke-opacity="1" stroke-width="1" stroke-linecap="butt" stroke-linejoin="miter" stroke-dasharray="8,4,2,4" /><g><g><g><path d="M541.75 157.375 L541.75 183.625 Q546.9375 188 562.5 188 Q578.0626 188 583.25 183.625 L583.25 157.375 Z " opacity="1" stroke="#000000" stroke-opacity="1" stroke-width="1" stroke-linecap="butt" stroke-linejoin="miter" stroke-dasharray="none" fill="#FFFFFF" fill-opacity="1" /><ellipse cx="562.5" cy="157.375" rx="20.75002" ry="4.374988" opacity="1" stroke="#000000" stroke-opacity="1" stroke-width="1" stroke-linecap="butt" stroke-linejoin="miter" stroke-dasharray="none" fill="#FFFFFF" fill-opacity="1" /></g></g></g><g><g><path d="M930.5683 255.8584 L930.5892 255.8302 L930.6064 255.802 L930.6187 255.7729 L930.6259 255.7439 L930.631 255.7147 L930.631 255.6851 L930.6281 255.6553 L930.6209 255.6252 L930.6122 255.595 L930.6 255.5645 L930.5856 255.5339 L930.5683 255.503 L930.5488 255.4718 L930.5266 255.4408 L930.5035 255.4095 L930.479 255.378 L930.425 255.3147 L930.366 255.251 L930.3063 255.187 L930.245 255.1228 L930.1853 255.0586 L930.1277 254.9941 L930.0737 254.9301 L930.0492 254.898 L930.0255 254.8661 L930.0053 254.8341 L929.9851 254.8023 L929.9692 254.7705 L929.9549 254.739 L929.9434 254.7073 L929.9354 254.6762 L929.929 254.6448 L929.9275 254.6136 L929.929 254.5829 L929.934 254.5521 L929.9434 254.5215 L929.9564 254.491 L929.9744 254.4609 L929.9966 254.4313 L930.0233 254.4015 L930.0549 254.3721 L930.0917 254.343 L930.1349 254.314 L930.1824 254.2854 L930.2364 254.2572 L930.2961 254.2291 L930.3286 254.2153 L930.3624 254.2015 L930.3976 254.1879 L930.4344 254.1741 L930.474 254.1606 L930.5143 254.1473 L930.5561 254.134 L930.6 254.1207 L930.6453 254.1074 L930.6929 254.0943 L930.7418 254.0813 L930.7936 254.0684 L930.8463 254.0558 L930.901 254.043 L930.9578 254.0304 L931.0162 254.0179 L931.0759 254.0055 L931.1385 253.9934 L931.2034 253.9812 L931.2711 253.9692 L931.3395 253.9572 L931.4093 253.9453 C933.3662 253.6248 939.2919 250.1383 925.3929 249.9565" opacity="1" stroke="#000000" stroke-opacity="1" stroke-width="0.39999" stroke-linecap="butt" stroke-linejoin="miter" stroke-dasharray="none" fill-opacity="0" /><path d="M898.7724 254.8396 L898.7724 251.4488 L921.2421 251.4488 L921.2421 254.8396 Z " opacity="1" fill="#036998" fill-opacity="1" /><path d="M898.7724 254.8396 L921.2421 254.8396 L921.2421 251.4488 L898.7724 251.4488 Z " opacity="1" stroke="#FFFFFF" stroke-opacity="1" stroke-width="0.39999" stroke-linecap="butt" stroke-linejoin="miter" stroke-dasharray="none" fill-opacity="0" /><path d="M921.2177 254.8541 L921.2177 251.4488 L925.7515 246.8335 L925.7515 250.3201 Z " opacity="1" fill="#036998" fill-opacity="1" /><path d="M921.2177 254.8541 L921.2177 251.4488 L925.7515 246.8335 L925.7515 250.3201 Z " opacity="1" stroke="#FFFFFF" stroke-opacity="1" stroke-width="0.39999" stroke-linecap="butt" stroke-linejoin="miter" stroke-dasharray="none" fill-opacity="0" /><path d="M898.7724 255.4519 L898.7724 251.4488 L921.2421 251.4488 L921.2421 255.4519 Z " opacity="1" fill="#036998" fill-opacity="1" /><path d="M898.7724 255.4519 L921.2421 255.4519 L921.2421 251.4488 L898.7724 251.4488 Z " opacity="1" stroke="#FFFFFF" stroke-opacity="1" stroke-width="0.39999" stroke-linecap="butt" stroke-linejoin="miter" stroke-dasharray="none" fill-opacity="0" /><path d="M921.2177 255.4663 L921.2177 251.4488 L925.7515 246.8335 L925.7515 250.9321 Z " opacity="1" fill="#036998" fill-opacity="1" /><path d="M921.2177 255.4663 L921.2177 251.4488 L925.7515 246.8335 L925.7515 250.9321 Z " opacity="1" stroke="#FFFFFF" stroke-opacity="1" stroke-width="0.39999" stroke-linecap="butt" stroke-linejoin="miter" stroke-dasharray="none" fill-opacity="0" /><path d="M927.3262 246.2213 L924.1495 250.8366 L896.1847 250.8366 L900.6854 246.2213 Z " opacity="1" fill="#036998" fill-opacity="1" /><path d="M927.3262 246.2213 L924.1495 250.8366 L896.1847 250.8366 L900.6854 246.2213 Z " opacity="1" stroke="#FFFFFF" stroke-opacity="1" stroke-width="0.39999" stroke-linecap="butt" stroke-linejoin="miter" stroke-dasharray="none" fill-opacity="0" /><path d="M896.1178 252.391 L896.1178 250.8366 L922.873 250.8366 L922.873 252.391 Z " opacity="1" fill="#036998" fill-opacity="1" /><path d="M896.1178 252.391 L922.873 252.391 L922.873 250.8366 L896.1178 250.8366 Z " opacity="1" stroke="#FFFFFF" stroke-opacity="1" stroke-width="0.39999" stroke-linecap="butt" stroke-linejoin="miter" stroke-dasharray="none" fill-opacity="0" /><path d="M922.8484 252.4053 L922.8484 250.8366 L927.3823 246.2213 L927.3823 247.8719 Z " opacity="1" fill="#036998" fill-opacity="1" /><path d="M922.8484 252.4053 L922.8484 250.8366 L927.3823 246.2213 L927.3823 247.8719 Z " opacity="1" stroke="#FFFFFF" stroke-opacity="1" stroke-width="0.39999" stroke-linecap="butt" stroke-linejoin="miter" stroke-dasharray="none" fill-opacity="0" /><path d="M927.3262 246.2213 L924.1495 250.8366 L896.1847 250.8366 L900.6854 246.2213 Z " opacity="1" fill="#036998" fill-opacity="1" /><path d="M927.3262 246.2213 L924.1495 250.8366 L896.1847 250.8366 L900.6854 246.2213 Z " opacity="1" stroke="#FFFFFF" stroke-opacity="1" stroke-width="0.39999" stroke-linecap="butt" stroke-linejoin="miter" stroke-dasharray="none" fill-opacity="0" /><path d="M896.1178 252.391 L896.1178 250.8366 L922.873 250.8366 L922.873 252.391 Z " opacity="1" fill="#036998" fill-opacity="1" /><path d="M896.1178 252.391 L922.873 252.391 L922.873 250.8366 L896.1178 250.8366 Z " opacity="1" stroke="#FFFFFF" stroke-opacity="1" stroke-width="0.39999" stroke-linecap="butt" stroke-linejoin="miter" stroke-dasharray="none" fill-opacity="0" /><path d="M922.8484 252.4053 L922.8484 250.8366 L927.3823 246.2213 L927.3823 247.8719 Z " opacity="1" fill="#036998" fill-opacity="1" /><path d="M922.8484 252.4053 L922.8484 250.8366 L927.3823 246.2213 L927.3823 247.8719 Z " opacity="1" stroke="#FFFFFF" stroke-opacity="1" stroke-width="0.39999" stroke-linecap="butt" stroke-linejoin="miter" stroke-dasharray="none" fill-opacity="0" /><path d="M927.4695 225 L903.3055 225 L896.2372 226.664 L924.2258 226.664 Z " opacity="1" fill="#036998" fill-opacity="1" /><path d="M927.4695 225 L903.3055 225 L896.2372 226.664 L924.2258 226.664 Z " opacity="1" stroke="#FFFFFF" stroke-opacity="1" stroke-width="0.39999" stroke-linecap="butt" stroke-linejoin="miter" stroke-dasharray="none" fill-opacity="0" /><path d="M923.0162 248.8758 L921.7771 247.8571 L899.0784 247.8571 L900.2736 248.8758 Z " opacity="1" fill="#036998" fill-opacity="1" /><path d="M923.0162 248.8758 L921.7771 247.8571 L899.0784 247.8571 L900.2736 248.8758 Z " opacity="1" stroke="#FFFFFF" stroke-opacity="1" stroke-width="0.39999" stroke-linecap="butt" stroke-linejoin="miter" stroke-dasharray="none" fill-opacity="0" /><path d="M923.1545 248.6983 L921.5906 247.6514 L927.3788 244.5903 L923.6527 248.2771 Z " opacity="1" fill="#036998" fill-opacity="1" /><path d="M923.1545 248.6983 L921.5906 247.6514 L927.3788 244.5903 L923.6527 248.2771 Z " opacity="1" stroke="#FFFFFF" stroke-opacity="1" stroke-width="0.39999" stroke-linecap="butt" stroke-linejoin="miter" stroke-dasharray="none" fill-opacity="0" /><path d="M924.2258 226.664 L924.2258 247.5363 L927.4695 244.5182 L927.4695 225 Z " opacity="1" fill="#036998" fill-opacity="1" /><path d="M924.2258 226.664 L924.2258 247.5363 L927.4695 244.5182 L927.4695 225 Z " opacity="1" stroke="#FFFFFF" stroke-opacity="1" stroke-width="0.39999" stroke-linecap="butt" stroke-linejoin="miter" stroke-dasharray="none" fill-opacity="0" /><path d="M924.2258 247.7665 L924.2258 226.664 L896.2372 226.664 L896.2372 247.7665 Z " opacity="1" fill="#036998" fill-opacity="1" /><path d="M896.2372 247.7665 L924.2258 247.7665 L924.2258 226.664 L896.2372 226.664 Z " opacity="1" stroke="#FFFFFF" stroke-opacity="1" stroke-width="0.39999" stroke-linecap="butt" stroke-linejoin="miter" stroke-dasharray="none" fill-opacity="0" /><path d="M921.8729 260.9282 L921.8729 259.3067 L925.3742 254.4618 L925.3742 257.4272 Z " opacity="1" fill="#036998" fill-opacity="1" /><path d="M921.8729 260.9282 L921.8729 259.3067 L925.3742 254.4618 L925.3742 257.4272 Z " opacity="1" stroke="#FFFFFF" stroke-opacity="1" stroke-width="0.39999" stroke-linecap="butt" stroke-linejoin="miter" stroke-dasharray="none" fill-opacity="0" /><path d="M921.8729 259.3308 L921.8729 260.9282 L891 260.9282 L891 259.3308 Z " opacity="1" fill="#036998" fill-opacity="1" /><path d="M891 260.9282 L921.8729 260.9282 L921.8729 259.3308 L891 259.3308 Z " opacity="1" stroke="#FFFFFF" stroke-opacity="1" stroke-width="0.39999" stroke-linecap="butt" stroke-linejoin="miter" stroke-dasharray="none" fill-opacity="0" /><path d="M930.649 259.6465 L932.7009 255.5521 L928.0188 255.5521 L925.9718 259.6465 Z " opacity="1" fill="#036998" fill-opacity="1" /><path d="M930.649 259.6465 L932.7009 255.5521 L928.0188 255.5521 L925.9718 259.6465 Z " opacity="1" stroke="#FFFFFF" stroke-opacity="1" stroke-width="0.39999" stroke-linecap="butt" stroke-linejoin="miter" stroke-dasharray="none" fill-opacity="0" /><path d="M925.9718 259.6465 L930.649 259.6465 L930.649 260.9667 L925.9718 260.9667 Z " opacity="1" fill="#036998" fill-opacity="1" /><path d="M925.9718 260.9667 L930.649 260.9667 L930.649 259.6465 L925.9718 259.6465 Z " opacity="1" stroke="#FFFFFF" stroke-opacity="1" stroke-width="0.39999" stroke-linecap="butt" stroke-linejoin="miter" stroke-dasharray="none" fill-opacity="0" /><path d="M930.6158 261 L930.6259 259.6465 L932.6729 255.5521 L932.6628 258.3693 Z " opacity="1" fill="#036998" fill-opacity="1" /><path d="M930.6158 261 L930.6259 259.6465 L932.6729 255.5521 L932.6628 258.3693 Z " opacity="1" stroke="#FFFFFF" stroke-opacity="1" stroke-width="0.39999" stroke-linecap="butt" stroke-linejoin="miter" stroke-dasharray="none" fill-opacity="0" /><path d="M921.8729 259.3308 L891.1008 259.3308 L894.6014 254.4618 L925.3742 254.4618 Z " opacity="1" fill="#036998" fill-opacity="1" /><path d="M921.8729 259.3308 L891.1008 259.3308 L894.6014 254.4618 L925.3742 254.4618 Z " opacity="1" stroke="#FFFFFF" stroke-opacity="1" stroke-width="0.39999" stroke-linecap="butt" stroke-linejoin="miter" stroke-dasharray="none" fill-opacity="0" /><path d="M900.3024 228.8691 L919.9598 228.8691 C921.2371 228.8691 922.2753 229.9025 922.2753 231.1843 L922.2753 243.5997 C922.2753 244.8818 921.2371 245.92 919.9598 245.92 L900.3024 245.92 C899.0208 245.92 897.9875 244.8818 897.9875 243.5997 L897.9875 231.1843 C897.9875 229.9025 899.0208 228.8691 900.3024 228.8691 Z " opacity="1" fill="#036998" fill-opacity="1" /><path d="M900.3024 228.8691 L919.9598 228.8691 C921.2371 228.8691 922.2753 229.9025 922.2753 231.1843 L922.2753 243.5997 C922.2753 244.8818 921.2371 245.92 919.9598 245.92 L900.3024 245.92 C899.0208 245.92 897.9875 244.8818 897.9875 243.5997 L897.9875 231.1843 C897.9875 229.9025 899.0208 228.8691 900.3024 228.8691 Z " opacity="1" stroke="#FFFFFF" stroke-opacity="1" stroke-width="0.39999" stroke-linecap="butt" stroke-linejoin="miter" stroke-dasharray="none" fill-opacity="0" /></g></g><line x1="808.3035" y1="243" x2="874.6965" y2="243" marker-start="url(#marker4)" marker-end="url(#marker5)" opacity="1" stroke="#000000" stroke-opacity="1" stroke-width="1" stroke-linecap="butt" stroke-linejoin="miter" stroke-dasharray="none" /><text x="190.3955" y="196.2836" font-size="12" fill="#000000" fill-opacity="1" font-family="Arial" font-weight="normal" font-style="normal">Delphire
</text><text x="180.4141" y="211.2836" font-size="12" fill="#000000" fill-opacity="1" font-family="Arial" font-weight="normal" font-style="normal">edge server</text><g><g><path d="M213.6631 232.3915 L201.5953 232.3915 L201.6588 268.5031 L213.6631 268.5031 Z " opacity="1" fill="#02709F" fill-opacity="1" /><path d="M213.6631 232.3915 L201.5953 232.3915 L201.6588 268.5031 L213.6631 268.5031 Z " opacity="1" stroke="#FFFFFF" stroke-opacity="1" stroke-width="0.39999" stroke-linecap="butt" stroke-linejoin="miter" stroke-dasharray="none" fill-opacity="0" /><path d="M203.3066 237.3839 L211.8235 237.3839 L211.8235 245.5516 L203.3066 245.5516 Z " opacity="1" fill="#02709F" fill-opacity="1" /><path d="M203.3066 245.5516 L211.8235 245.5516 L211.8235 237.3839 L203.3066 237.3839 Z " opacity="1" stroke="#FFFFFF" stroke-opacity="1" stroke-width="0.39999" stroke-linecap="butt" stroke-linejoin="miter" stroke-dasharray="none" fill-opacity="0" /><path d="M220.8219 225.1219 L213.6779 232.5388 L213.6779 268.5131 L220.8166 260.0492 Z " opacity="1" fill="#02709F" fill-opacity="1" /><path d="M220.8219 225.1219 L213.6779 232.5388 L213.6779 268.5131 L220.8166 260.0492 Z " opacity="1" stroke="#FFFFFF" stroke-opacity="1" stroke-width="0.39999" stroke-linecap="butt" stroke-linejoin="miter" stroke-dasharray="none" fill-opacity="0" /><line x1="191.1132" y1="232.1861" x2="200.9984" y2="232.1861" opacity="1" stroke="#02709F" stroke-opacity="1" stroke-width="0" stroke-linecap="butt" stroke-linejoin="miter" stroke-dasharray="none" /><line x1="191.1132" y1="232.1861" x2="200.9984" y2="232.1861" opacity="1" stroke="#FFFFFF" stroke-opacity="1" stroke-width="0.39999" stroke-linecap="butt" stroke-linejoin="miter" stroke-dasharray="none" /><line x1="203.0117" y1="230.9867" x2="207.5498" y2="226.0198" opacity="1" stroke="#02709F" stroke-opacity="1" stroke-width="0" stroke-linecap="butt" stroke-linejoin="miter" stroke-dasharray="none" /><line x1="203.0117" y1="230.9867" x2="207.5498" y2="226.0198" opacity="1" stroke="#FFFFFF" stroke-opacity="1" stroke-width="0.39999" stroke-linecap="butt" stroke-linejoin="miter" stroke-dasharray="none" /><path d="M201.2045 232.9301 L201.204 232.9367 L201.2027 232.9568 L201.1994 232.9895 L201.1933 233.0325 L201.1841 233.0869 L201.1704 233.1504 L201.1517 233.2235 L201.1272 233.303 L201.0966 233.3911 L201.0583 233.4842 L201.0119 233.5817 L200.9567 233.6845 L200.8918 233.7915 L200.8168 233.8997 L200.7302 234.0106 L200.6319 234.1215 L200.5207 234.2323 L200.396 234.3423 L200.3284 234.3961 L200.2572 234.4503 L200.182 234.503 L200.103 234.5542 L200.0201 234.6059 L199.9332 234.6556 L199.8423 234.7059 L199.7468 234.7529 L199.6472 234.7988 L199.5429 234.8452 L199.4342 234.8884 L199.321 234.93 L199.2029 234.9695 L199.08 235.0072 L198.9521 235.0437 L198.8196 235.0776 L198.6814 235.1087 L198.5381 235.1387 L198.3897 235.1641 L198.2359 235.1885 L198.0762 235.2101 L197.9115 235.2294 L197.7406 235.2454 L197.5643 235.2575 L197.3816 235.2672 L197.1933 235.2736 L196.9989 235.2764 L196.7981 235.2764 L189.0951 234.0985 L189.0951 233.6333 L199.9259 225 L220.7637 225.0163 L213.7416 232.3915 L201.6693 232.3915" opacity="1" fill="#02709F" fill-opacity="1" /><path d="M201.2045 232.9301 L201.204 232.9367 L201.2027 232.9568 L201.1994 232.9895 L201.1933 233.0325 L201.1841 233.0869 L201.1704 233.1504 L201.1517 233.2235 L201.1272 233.303 L201.0966 233.3911 L201.0583 233.4842 L201.0119 233.5817 L200.9567 233.6845 L200.8918 233.7915 L200.8168 233.8997 L200.7302 234.0106 L200.6319 234.1215 L200.5207 234.2323 L200.396 234.3423 L200.3284 234.3961 L200.2572 234.4503 L200.182 234.503 L200.103 234.5542 L200.0201 234.6059 L199.9332 234.6556 L199.8423 234.7059 L199.7468 234.7529 L199.6472 234.7988 L199.5429 234.8452 L199.4342 234.8884 L199.321 234.93 L199.2029 234.9695 L199.08 235.0072 L198.9521 235.0437 L198.8196 235.0776 L198.6814 235.1087 L198.5381 235.1387 L198.3897 235.1641 L198.2359 235.1885 L198.0762 235.2101 L197.9115 235.2294 L197.7406 235.2454 L197.5643 235.2575 L197.3816 235.2672 L197.1933 235.2736 L196.9989 235.2764 L196.7981 235.2764 L189.0951 234.0985 L189.0951 233.6333 L199.9259 225 L220.7637 225.0163 L213.7416 232.3915 L201.6693 232.3915" opacity="1" stroke="#FFFFFF" stroke-opacity="1" stroke-width="0.39999" stroke-linecap="butt" stroke-linejoin="miter" stroke-dasharray="none" fill-opacity="0" /><path d="M201.5742 232.5189 L201.5716 232.52 L201.564 232.524 L201.5339 232.5418 L201.4845 232.5685 L201.4162 232.6054 L201.3294 232.6515 L201.2251 232.7053 L201.1034 232.7647 L200.9651 232.8323 L200.8104 232.9041 L200.6405 232.9813 L200.4554 233.0611 L200.2558 233.1437 L200.0425 233.2287 L199.8154 233.3152 L199.5757 233.4019 L199.3234 233.4872 L199.0596 233.5723 L198.7846 233.6548 L198.4988 233.7345 L198.203 233.8091 L197.8976 233.8807 L197.5831 233.9457 L197.26 234.0051 L196.9293 234.0562 L196.591 234.0999 L196.2457 234.1352 L195.8942 234.1593 L195.537 234.174 L195.1746 234.1767 L194.8072 234.1675 L194.4361 234.1445 L194.0614 234.1082 L189 233.6805 L189 269.7133 L194.0614 269.9298 C199.1914 270.3784 201.5953 268.5297 201.5953 268.5297 Z " opacity="1" fill="#02709F" fill-opacity="1" /><path d="M201.5742 232.5189 L201.5716 232.52 L201.564 232.524 L201.5339 232.5418 L201.4845 232.5685 L201.4162 232.6054 L201.3294 232.6515 L201.2251 232.7053 L201.1034 232.7647 L200.9651 232.8323 L200.8104 232.9041 L200.6405 232.9813 L200.4554 233.0611 L200.2558 233.1437 L200.0425 233.2287 L199.8154 233.3152 L199.5757 233.4019 L199.3234 233.4872 L199.0596 233.5723 L198.7846 233.6548 L198.4988 233.7345 L198.203 233.8091 L197.8976 233.8807 L197.5831 233.9457 L197.26 234.0051 L196.9293 234.0562 L196.591 234.0999 L196.2457 234.1352 L195.8942 234.1593 L195.537 234.174 L195.1746 234.1767 L194.8072 234.1675 L194.4361 234.1445 L194.0614 234.1082 L189 233.6805 L189 269.7133 L194.0614 269.9298 C199.1914 270.3784 201.5953 268.5297 201.5953 268.5297 Z " opacity="1" stroke="#FFFFFF" stroke-opacity="1" stroke-width="0.39999" stroke-linecap="butt" stroke-linejoin="miter" stroke-dasharray="none" fill-opacity="0" /><line x1="191.2083" y1="232.017" x2="201.0934" y2="232.017" opacity="1" stroke="#02709F" stroke-opacity="1" stroke-width="0" stroke-linecap="butt" stroke-linejoin="miter" stroke-dasharray="none" /><line x1="191.2083" y1="232.017" x2="201.0934" y2="232.017" opacity="1" stroke="#FFFFFF" stroke-opacity="1" stroke-width="0.39999" stroke-linecap="butt" stroke-linejoin="miter" stroke-dasharray="none" /><line x1="203.9993" y1="230.8225" x2="209.4201" y2="225.8235" opacity="1" stroke="#02709F" stroke-opacity="1" stroke-width="0" stroke-linecap="butt" stroke-linejoin="miter" stroke-dasharray="none" /><line x1="203.9993" y1="230.8225" x2="209.4201" y2="225.8235" opacity="1" stroke="#FFFFFF" stroke-opacity="1" stroke-width="0.39999" stroke-linecap="butt" stroke-linejoin="miter" stroke-dasharray="none" /></g></g><line x1="220.8185" y1="247.5" x2="352.6965" y2="247.5" marker-end="url(#marker6)" opacity="1" stroke="#000000" stroke-opacity="1" stroke-width="1" stroke-linecap="butt" stroke-linejoin="miter" stroke-dasharray="none" /><g><g><path d="M264.4937 237.1234 L263.9863 237.0507 L263.4864 236.9871 L262.9941 236.9315 L262.5094 236.8838 L261.5627 236.8122 L260.6478 236.7713 L259.7639 236.7599 L258.9111 236.7769 L258.0909 236.8208 L257.3025 236.8906 L256.5466 236.9849 L255.8226 237.103 L255.1326 237.2439 L254.4752 237.4052 L253.8519 237.5876 L253.2619 237.788 L252.706 238.0068 L252.1849 238.2419 L251.6979 238.4918 L251.2457 238.7566 L250.8292 239.0343 L250.4482 239.324 L250.1024 239.6245 L249.793 239.9346 L249.5197 240.2527 L249.2831 240.5782 L249.0833 240.9094 L248.9206 241.2462 L248.7953 241.5859 L248.7078 241.9285 L248.6582 242.2727 L248.6467 242.6168 L248.6739 242.9599 L248.7398 243.3008 L248.8138 243.4978 C240.3141 244.5834 242.5418 252.1053 246.6187 252.1053 L247.021 252.0961 C245.9914 255.6309 255.9263 259.2276 261.4642 257.4304 L261.8194 257.1375 C263.7924 260.3171 270.8072 260.8497 277.7477 260.9806 C283.7598 261.0959 287.2679 260.7388 289.8453 258.764 L290.2444 258.8506 C299.8683 259.4319 304.2497 254.4461 302.1465 250.8647 L302.6646 250.7562 C305.9455 250.1058 306.3242 244.4255 300.6938 243.5847 L300.8037 243.3649 C303.2469 239.6705 297.4841 236.1845 289.487 236.8395 L288.9311 236.6218 C283.2061 232.7343 266.7302 233.3688 264.8224 237.2144 Z " opacity="1" fill="#FFFFFF" fill-opacity="1" /><path d="M264.4937 237.1234 L263.9863 237.0507 L263.4864 236.9871 L262.9941 236.9315 L262.5094 236.8838 L261.5627 236.8122 L260.6478 236.7713 L259.7639 236.7599 L258.9111 236.7769 L258.0909 236.8208 L257.3025 236.8906 L256.5466 236.9849 L255.8226 237.103 L255.1326 237.2439 L254.4752 237.4052 L253.8519 237.5876 L253.2619 237.788 L252.706 238.0068 L252.1849 238.2419 L251.6979 238.4918 L251.2457 238.7566 L250.8292 239.0343 L250.4482 239.324 L250.1024 239.6245 L249.793 239.9346 L249.5197 240.2527 L249.2831 240.5782 L249.0833 240.9094 L248.9206 241.2462 L248.7953 241.5859 L248.7078 241.9285 L248.6582 242.2727 L248.6467 242.6168 L248.6739 242.9599 L248.7398 243.3008 L248.8138 243.4978 C240.3141 244.5834 242.5418 252.1053 246.6187 252.1053 L247.021 252.0961 C245.9914 255.6309 255.9263 259.2276 261.4642 257.4304 L261.8194 257.1375 C263.7924 260.3171 270.8072 260.8497 277.7477 260.9806 C283.7598 261.0959 287.2679 260.7388 289.8453 258.764 L290.2444 258.8506 C299.8683 259.4319 304.2497 254.4461 302.1465 250.8647 L302.6646 250.7562 C305.9455 250.1058 306.3242 244.4255 300.6938 243.5847 L300.8037 243.3649 C303.2469 239.6705 297.4841 236.1845 289.487 236.8395 L288.9311 236.6218 C283.2061 232.7343 266.7302 233.3688 264.8224 237.2144 Z " opacity="1" stroke="#02709F" stroke-opacity="1" stroke-width="0.39999" stroke-linecap="butt" stroke-linejoin="miter" stroke-dasharray="none" fill-opacity="0" /></g></g><line x1="562.5" y1="195.3035" x2="562.5" y2="217.6965" marker-start="url(#marker7)" marker-end="url(#marker8)" opacity="1" stroke="#000000" stroke-opacity="1" stroke-width="1" stroke-linecap="butt" stroke-linejoin="miter" stroke-dasharray="none" /><text x="509.4805" y="140.5336" font-size="12" fill="#000000" fill-opacity="1" font-family="Arial" font-weight="normal" font-style="normal">last Sentinel state</text><rect x="369" y="55" width="63" height="35" opacity="1" stroke="#7F7F7F" stroke-opacity="1" stroke-width="1" stroke-linecap="butt" stroke-linejoin="miter" stroke-dasharray="none" fill="#FDF8E2" fill-opacity="1" filter="url(#shadow1)" /><text x="382.981" y="71.61133" font-size="10" fill="#3F3F3F" fill-opacity="1" font-family="Arial" font-weight="normal" font-style="normal">Sentinel
</text><text x="386.4063" y="83.61133" font-size="10" fill="#3F3F3F" fill-opacity="1" font-family="Arial" font-weight="normal" font-style="normal">Replay </text><g><g><g><path d="M379.7499 113.375 L379.7499 139.625 Q384.9375 144 400.5 144 Q416.0626 144 421.25 139.625 L421.25 113.375 Z " opacity="1" stroke="#7F7F7F" stroke-opacity="1" stroke-width="1" stroke-linecap="butt" stroke-linejoin="miter" stroke-dasharray="none" fill="#FFFFFF" fill-opacity="1" /><text x="385.0561" y="133.7988" font-size="10" fill="#3F3F3F" fill-opacity="1" font-family="Arial" font-weight="normal" font-style="normal">archive</text><ellipse cx="400.5" cy="113.375" rx="20.75002" ry="4.374987" opacity="1" stroke="#7F7F7F" stroke-opacity="1" stroke-width="1" stroke-linecap="butt" stroke-linejoin="miter" stroke-dasharray="none" fill="#FFFFFF" fill-opacity="1" /></g></g></g><rect x="369" y="163" width="63" height="35.00001" opacity="1" stroke="#7F7F7F" stroke-opacity="1" stroke-width="1" stroke-linecap="butt" stroke-linejoin="miter" stroke-dasharray="none" fill="#FDF8E2" fill-opacity="1" filter="url(#shadow1)" /><text x="382.981" y="179.6113" font-size="10" fill="#3F3F3F" fill-opacity="1" font-family="Arial" font-weight="normal" font-style="normal">Sentinel
</text><text x="384.4458" y="191.6113" font-size="10" fill="#3F3F3F" fill-opacity="1" font-family="Arial" font-weight="normal" font-style="normal">Archive </text><path d="M459.6254 247.1602 L459 180 L439.3035 180" marker-end="url(#marker9)" opacity="1" stroke="#7F7F7F" stroke-opacity="1" stroke-width="1" stroke-linecap="butt" stroke-linejoin="miter" stroke-dasharray="none" fill-opacity="0" /><path d="M432 72 L480.5691 72.0295 L481.4612 240.1966" marker-end="url(#marker10)" opacity="1" stroke="#7F7F7F" stroke-opacity="1" stroke-width="1" stroke-linecap="butt" stroke-linejoin="miter" stroke-dasharray="none" fill-opacity="0" /><line x1="400.5" y1="163" x2="400.5" y2="151.3035" marker-end="url(#marker11)" opacity="1" stroke="#7F7F7F" stroke-opacity="1" stroke-width="1" stroke-linecap="butt" stroke-linejoin="miter" stroke-dasharray="none" /><line x1="400.5" y1="109" x2="400.5" y2="97.30352" marker-end="url(#marker12)" opacity="1" stroke="#7F7F7F" stroke-opacity="1" stroke-width="1" stroke-linecap="butt" stroke-linejoin="miter" stroke-dasharray="none" /><text x="245.501" y="356.5336" font-size="12" fill="#000000" fill-opacity="1" font-family="Arial" font-weight="normal" font-style="normal">internet</text><line x1="340.3035" y1="351" x2="847.6965" y2="351" marker-start="url(#marker13)" marker-end="url(#marker14)" opacity="1" stroke="#000000" stroke-opacity="1" stroke-width="1" stroke-linecap="butt" stroke-linejoin="miter" stroke-dasharray="none" clip-path="url(#clip_0)" /><text x="565.1064" y="356.5336" font-size="12" fill="#000000" fill-opacity="1" font-family="Arial" font-weight="normal" font-style="normal">ODIN node</text><text x="873.3682" y="349.0336" font-size="12" fill="#000000" fill-opacity="1" font-family="Arial" font-weight="normal" font-style="normal">stakeholder
</text><text x="894.5967" y="364.0336" font-size="12" fill="#000000" fill-opacity="1" font-family="Arial" font-weight="normal" font-style="normal">LAN</text></g></svg>